<svg width="32" height="32" viewBox="0 0 32 32" fill="none" xmlns="http://www.w3.org/2000/svg">
<path d="M7.99988 8C7.46945 8 6.96074 8.21071 6.58567 8.58579C6.2106 8.96086 5.99988 9.46957 5.99988 10V14.884C5.99988 15.4144 6.2106 15.9231 6.58567 16.2982C6.96074 16.6733 7.46945 16.884 7.99988 16.884H10.7759C10.7759 17.5867 10.7345 18.2893 10.6519 18.992C10.5279 19.736 10.3212 20.3973 10.0319 20.976C9.74255 21.5547 9.36988 22.01 8.91388 22.342C8.46055 22.714 7.88188 22.9 7.17788 22.9V26C8.33521 26 9.34855 25.752 10.2179 25.256C11.0812 24.7663 11.8229 24.0881 12.3879 23.272C12.9567 22.3737 13.3755 21.3888 13.6279 20.356C13.8831 19.2165 14.0079 18.0517 13.9999 16.884V10C13.9999 9.46957 13.7892 8.96086 13.4141 8.58579C13.039 8.21071 12.5303 8 11.9999 8H7.99988ZM19.9999 8C19.4694 8 18.9607 8.21071 18.5857 8.58579C18.2106 8.96086 17.9999 9.46957 17.9999 10V14.884C17.9999 15.4144 18.2106 15.9231 18.5857 16.2982C18.9607 16.6733 19.4694 16.884 19.9999 16.884H22.7759C22.7759 17.5867 22.7345 18.2893 22.6519 18.992C22.5265 19.736 22.3199 20.3973 22.0319 20.976C21.7425 21.5547 21.3699 22.01 20.9139 22.342C20.4605 22.714 19.8819 22.9 19.1779 22.9V26C20.3352 26 21.3485 25.752 22.2179 25.256C23.0812 24.7663 23.8229 24.0881 24.3879 23.272C24.9567 22.3737 25.3755 21.3888 25.6279 20.356C25.8831 19.2165 26.0079 18.0517 25.9999 16.884V10C25.9999 9.46957 25.7892 8.96086 25.4141 8.58579C25.039 8.21071 24.5303 8 23.9999 8H19.9999Z" fill="#F59E0B"/>
</svg>
