<svg width="32" height="32" viewBox="0 0 32 32" fill="none" xmlns="http://www.w3.org/2000/svg">
<path d="M24.0001 24C24.5306 24 25.0393 23.7893 25.4143 23.4142C25.7894 23.0391 26.0001 22.5304 26.0001 22V17.116C26.0001 16.5856 25.7894 16.0769 25.4143 15.7018C25.0393 15.3267 24.5306 15.116 24.0001 15.116H21.2241C21.2241 14.4133 21.2655 13.7107 21.3481 13.008C21.4721 12.264 21.6788 11.6027 21.9681 11.024C22.2575 10.4453 22.6301 9.99 23.0861 9.658C23.5395 9.286 24.1181 9.1 24.8221 9.1V6C23.6648 6 22.6515 6.248 21.7821 6.744C20.9188 7.23375 20.1771 7.91191 19.6121 8.728C19.0433 9.6263 18.6245 10.6112 18.3721 11.644C18.1169 12.7835 17.9921 13.9483 18.0001 15.116V22C18.0001 22.5304 18.2108 23.0391 18.5859 23.4142C18.961 23.7893 19.4697 24 20.0001 24H24.0001ZM12.0001 24C12.5306 24 13.0393 23.7893 13.4143 23.4142C13.7894 23.0391 14.0001 22.5304 14.0001 22V17.116C14.0001 16.5856 13.7894 16.0769 13.4143 15.7018C13.0393 15.3267 12.5306 15.116 12.0001 15.116H9.22412C9.22412 14.4133 9.26545 13.7107 9.34812 13.008C9.47345 12.264 9.68012 11.6027 9.96812 11.024C10.2575 10.4453 10.6301 9.99 11.0861 9.658C11.5395 9.286 12.1181 9.1 12.8221 9.1V6C11.6648 6 10.6515 6.248 9.78212 6.744C8.9188 7.23375 8.17707 7.91191 7.61212 8.728C7.04334 9.6263 6.62454 10.6112 6.37212 11.644C6.11689 12.7835 5.99209 13.9483 6.00012 15.116V22C6.00012 22.5304 6.21083 23.0391 6.58591 23.4142C6.96098 23.7893 7.46969 24 8.00012 24H12.0001Z" fill="#F59E0B"/>
</svg>
