<svg width="15" height="15" viewBox="0 0 24 24" fill="none" xmlns="http://www.w3.org/2000/svg">
<mask id="path-1-outside-1_1393_3133" maskUnits="userSpaceOnUse" x="5" y="6" width="15" height="13" fill="black">
<rect fill="white" x="5" y="6" width="15" height="13"/>
<path d="M7.5 18L11.2 12.82L7.62 7.8H10.02L12.48 11.26H12.6L15.08 7.8H17.36L13.8 12.8L17.52 18H15.12L12.5 14.38H12.38L9.78 18H7.5Z"/>
</mask>
<path d="M7.5 18L11.2 12.82L7.62 7.8H10.02L12.48 11.26H12.6L15.08 7.8H17.36L13.8 12.8L17.52 18H15.12L12.5 14.38H12.38L9.78 18H7.5Z" fill="#6F6F6F"/>
<path d="M7.5 18L6.68627 17.4188L5.55681 19H7.5V18ZM11.2 12.82L12.0137 13.4012L12.4286 12.8205L12.0142 12.2394L11.2 12.82ZM7.62 7.8V6.8H5.67861L6.80583 8.38062L7.62 7.8ZM10.02 7.8L10.835 7.22054L10.536 6.8H10.02V7.8ZM12.48 11.26L11.665 11.8395L11.964 12.26H12.48V11.26ZM12.6 11.26V12.26H13.1136L13.4128 11.8426L12.6 11.26ZM15.08 7.8V6.8H14.5664L14.2672 7.21743L15.08 7.8ZM17.36 7.8L18.1746 8.38L19.2996 6.8H17.36V7.8ZM13.8 12.8L12.9854 12.22L12.5714 12.8014L12.9867 13.3818L13.8 12.8ZM17.52 18V19H19.4649L18.3333 17.4182L17.52 18ZM15.12 18L14.3099 18.5863L14.6093 19H15.12V18ZM12.5 14.38L13.3101 13.7937L13.0107 13.38H12.5V14.38ZM12.38 14.38V13.38H11.867L11.5678 13.7966L12.38 14.38ZM9.78 18V19H10.293L10.5922 18.5834L9.78 18ZM8.31373 18.5812L12.0137 13.4012L10.3863 12.2388L6.68627 17.4188L8.31373 18.5812ZM12.0142 12.2394L8.43417 7.21937L6.80583 8.38062L10.3858 13.4006L12.0142 12.2394ZM7.62 8.8H10.02V6.8H7.62V8.8ZM9.205 8.37945L11.665 11.8395L13.295 10.6805L10.835 7.22054L9.205 8.37945ZM12.48 12.26H12.6V10.26H12.48V12.26ZM13.4128 11.8426L15.8928 8.38257L14.2672 7.21743L11.7872 10.6774L13.4128 11.8426ZM15.08 8.8H17.36V6.8H15.08V8.8ZM16.5454 7.21999L12.9854 12.22L14.6146 13.38L18.1746 8.38L16.5454 7.21999ZM12.9867 13.3818L16.7067 18.5818L18.3333 17.4182L14.6133 12.2182L12.9867 13.3818ZM17.52 17H15.12V19H17.52V17ZM15.9301 17.4137L13.3101 13.7937L11.6899 14.9663L14.3099 18.5863L15.9301 17.4137ZM12.5 13.38H12.38V15.38H12.5V13.38ZM11.5678 13.7966L8.96779 17.4166L10.5922 18.5834L13.1922 14.9634L11.5678 13.7966ZM9.78 17H7.5V19H9.78V17Z" fill="#6F6F6F" mask="url(#path-1-outside-1_1393_3133)"/>
<rect x="0.5" y="0.5" width="23" height="23" stroke="#6F6F6F"/>
</svg>
