<svg width="26" height="26" viewBox="0 0 26 26" fill="none" xmlns="http://www.w3.org/2000/svg">
<path d="M13.0003 10.3137C12.469 10.3137 11.9495 10.4712 11.5077 10.7664C11.0659 11.0617 10.7215 11.4813 10.5182 11.9722C10.3148 12.4631 10.2616 13.0033 10.3653 13.5245C10.4689 14.0456 10.7248 14.5243 11.1006 14.9001C11.4763 15.2758 11.955 15.5317 12.4762 15.6354C12.9973 15.739 13.5375 15.6858 14.0285 15.4825C14.5194 15.2791 14.939 14.9348 15.2342 14.493C15.5294 14.0511 15.687 13.5317 15.687 13.0003C15.687 12.6475 15.6175 12.2981 15.4825 11.9722C15.3475 11.6462 15.1496 11.35 14.9001 11.1006C14.6506 10.8511 14.3544 10.6532 14.0285 10.5182C13.7025 10.3832 13.3531 10.3137 13.0003 10.3137ZM23.7578 7.65949C23.7521 6.8229 23.5981 5.99394 23.3028 5.21116C23.0854 4.63836 22.7489 4.11818 22.3157 3.68494C21.8825 3.25171 21.3623 2.91527 20.7895 2.69783C20.0067 2.40258 19.1778 2.24852 18.3412 2.24283C16.9437 2.16699 16.532 2.16699 13.0003 2.16699C9.46866 2.16699 9.05699 2.16699 7.65949 2.24283C6.8229 2.24852 5.99394 2.40258 5.21116 2.69783C4.63836 2.91527 4.11818 3.25171 3.68494 3.68494C3.25171 4.11818 2.91527 4.63836 2.69783 5.21116C2.40258 5.99394 2.24852 6.8229 2.24283 7.65949C2.16699 9.05699 2.16699 9.46866 2.16699 13.0003C2.16699 16.532 2.16699 16.9437 2.24283 18.3412C2.25449 19.1807 2.40833 20.0122 2.69783 20.8003C2.91431 21.3705 3.25046 21.8877 3.68366 22.317C4.11504 22.7528 4.63633 23.0893 5.21116 23.3028C5.99394 23.5981 6.8229 23.7521 7.65949 23.7578C9.05699 23.8337 9.46866 23.8337 13.0003 23.8337C16.532 23.8337 16.9437 23.8337 18.3412 23.7578C19.1778 23.7521 20.0067 23.5981 20.7895 23.3028C21.3643 23.0893 21.8856 22.7528 22.317 22.317C22.7502 21.8877 23.0863 21.3705 23.3028 20.8003C23.5978 20.0137 23.7518 19.1812 23.7578 18.3412C23.8337 16.9437 23.8337 16.532 23.8337 13.0003C23.8337 9.46866 23.8337 9.05699 23.7578 7.65949ZM21.0062 16.3262C20.9714 16.9947 20.8287 17.6532 20.5837 18.2762C20.3733 18.7958 20.0607 19.2679 19.6643 19.6643C19.2679 20.0607 18.7958 20.3733 18.2762 20.5837C17.6473 20.8151 16.9851 20.9431 16.3153 20.9628H9.68532C9.01553 20.9431 8.35335 20.8151 7.72449 20.5837C7.18727 20.384 6.70213 20.0655 6.30533 19.652C5.9128 19.2633 5.60966 18.7938 5.41699 18.2762C5.18468 17.648 5.06015 16.985 5.04866 16.3153V9.68532C5.06015 9.01564 5.18468 8.3527 5.41699 7.72449C5.61663 7.18727 5.93512 6.70213 6.34866 6.30533C6.73902 5.91492 7.20803 5.61209 7.72449 5.41699C8.35335 5.1856 9.01553 5.05755 9.68532 5.03783H16.3153C16.9851 5.05755 17.6473 5.1856 18.2762 5.41699C18.8134 5.61663 19.2985 5.93512 19.6953 6.34866C20.0879 6.7373 20.391 7.2068 20.5837 7.72449C20.8151 8.35335 20.9431 9.01553 20.9628 9.68532V13.0003C20.9628 15.232 21.0387 15.4595 21.0062 16.3153V16.3262ZM19.2728 8.26616C19.1438 7.91622 18.9405 7.59844 18.6768 7.33472C18.413 7.07101 18.0953 6.86764 17.7453 6.73866C17.2648 6.57211 16.7588 6.49143 16.2503 6.50033H9.75033C9.23928 6.50532 8.73315 6.60068 8.25532 6.78199C7.91075 6.90512 7.59633 7.10018 7.33296 7.35421C7.06959 7.60824 6.86331 7.91542 6.72783 8.25532C6.5705 8.73781 6.49364 9.24289 6.50033 9.75033V16.2503C6.51107 16.7608 6.60624 17.2659 6.78199 17.7453C6.91098 18.0953 7.11434 18.413 7.37806 18.6768C7.64177 18.9405 7.95956 19.1438 8.30949 19.2728C8.77171 19.4428 9.25812 19.5379 9.75033 19.5545H16.2503C16.7614 19.5495 17.2675 19.4541 17.7453 19.2728C18.0953 19.1438 18.413 18.9405 18.6768 18.6768C18.9405 18.413 19.1438 18.0953 19.2728 17.7453C19.4541 17.2675 19.5495 16.7614 19.5545 16.2503V9.75033C19.5548 9.23877 19.4593 8.73169 19.2728 8.25532V8.26616ZM13.0003 17.1387C12.4574 17.1387 11.9198 17.0315 11.4183 16.8234C10.9168 16.6153 10.4613 16.3103 10.0779 15.9259C9.69449 15.5415 9.39069 15.0852 9.1839 14.5832C8.97711 14.0812 8.8714 13.5433 8.87282 13.0003C8.87283 12.1814 9.11581 11.3808 9.57102 10.7001C10.0262 10.0193 10.6732 9.48888 11.43 9.17598C12.1868 8.86308 13.0194 8.78176 13.8225 8.94232C14.6256 9.10288 15.3629 9.49809 15.9412 10.0779C16.5196 10.6578 16.9128 11.3962 17.0713 12.1996C17.2297 13.0031 17.1462 13.8355 16.8314 14.5915C16.5165 15.3475 15.9844 15.9931 15.3024 16.4465C14.6204 16.8999 13.8193 17.1408 13.0003 17.1387ZM17.3337 9.67449C17.0942 9.64914 16.8726 9.53606 16.7115 9.35704C16.5504 9.17802 16.4613 8.94572 16.4613 8.70491C16.4613 8.46409 16.5504 8.23179 16.7115 8.05277C16.8726 7.87375 17.0942 7.76067 17.3337 7.73532C17.5731 7.76067 17.7948 7.87375 17.9558 8.05277C18.1169 8.23179 18.206 8.46409 18.206 8.70491C18.206 8.94572 18.1169 9.17802 17.9558 9.35704C17.7948 9.53606 17.5731 9.64914 17.3337 9.67449Z" fill="white"/>
</svg>
